<svg width="370" height="80" viewBox="0 0 370 80" fill="none" xmlns="http://www.w3.org/2000/svg">
<path d="M0 78.4449L21.0626 24.5552H29.1512L50.294 78.4449H42.4453L36.3588 62.014H13.5345L7.36789 78.4449H0ZM22.424 38.4233L15.6167 56.512H34.3567L27.7897 38.4233L25.227 30.8109H25.0668C24.0524 33.8257 23.1715 36.3632 22.424 38.4233ZM56.4957 78.4449V24.5552H77.3175C85.7001 24.5552 92.0268 26.9922 96.2982 31.8661C100.57 36.74 102.705 43.3476 102.705 51.6885C102.705 59.9793 100.489 66.5113 96.0577 71.2848C91.6262 76.0583 85.1928 78.4449 76.7572 78.4449H56.4957ZM63.7031 72.4907H76.5167C89.0635 72.4907 95.3372 65.5565 95.3372 51.6885C95.3372 37.5189 89.2505 30.4341 77.0775 30.4341H63.7031V72.4907ZM103.861 78.4449L124.923 24.5552H133.012L154.155 78.4449H146.307L140.22 62.014H117.395L111.229 78.4449H103.861ZM126.285 38.4233L119.478 56.512H138.218L131.651 38.4233L129.088 30.8109H128.928C127.913 33.8257 127.032 36.3632 126.285 38.4233ZM160.356 78.4449V24.5552H169.566L188.146 69.3248H188.306L206.726 24.5552H216.096V78.4449H209.209V34.1272H209.049C208.034 36.941 207.18 39.2022 206.486 40.9105L190.789 78.4449H185.263L169.566 40.9105L167.003 34.1272H166.843V78.4449H160.356ZM222.269 78.4449L243.332 24.5552H251.42L272.563 78.4449H264.714L258.628 62.014H235.803L229.637 78.4449H222.269ZM244.693 38.4233L237.886 56.512H256.626L250.059 38.4233L247.496 30.8109H247.336C246.321 33.8257 245.441 36.3632 244.693 38.4233ZM298.805 79.5C291.117 79.5 285.19 77.7164 281.026 74.1487C276.915 70.5811 274.699 65.9335 274.379 60.2052H281.426C282.387 69.4503 288.287 74.0731 299.125 74.0731C303.236 74.0731 306.52 73.2191 308.976 71.5107C311.485 69.7518 312.74 67.2397 312.74 63.9735C312.74 62.5166 312.446 61.2351 311.859 60.1301C311.271 59.0245 310.55 58.1201 309.697 57.4164C308.895 56.7131 307.667 56.0598 306.012 55.4569C304.357 54.8539 302.809 54.3765 301.368 54.0247C299.979 53.6733 298.057 53.2458 295.601 52.7437C292.665 52.1407 290.235 51.5378 288.313 50.9349C286.391 50.2815 284.469 49.4019 282.548 48.2968C280.625 47.1915 279.184 45.7843 278.223 44.076C277.315 42.3173 276.861 40.2069 276.861 37.745C276.861 33.3232 278.623 29.8562 282.147 27.3439C285.724 24.7813 290.449 23.5 296.322 23.5C309.189 23.5 316.423 29.1025 318.025 40.3076H311.218C310.684 36.4888 309.162 33.6248 306.653 31.7153C304.143 29.7557 300.753 28.7759 296.482 28.7759C292.531 28.7759 289.381 29.5296 287.032 31.037C284.736 32.5444 283.588 34.6799 283.588 37.4435C283.588 38.6494 283.829 39.7298 284.309 40.6844C284.843 41.5888 285.51 42.3678 286.311 43.0209C287.165 43.6238 288.26 44.1766 289.595 44.679C290.983 45.1814 292.344 45.6087 293.679 45.9603C295.014 46.2618 296.642 46.5885 298.564 46.9401C301.234 47.4425 303.423 47.9199 305.132 48.3719C306.84 48.7742 308.735 49.4019 310.818 50.2563C312.9 51.1108 314.501 52.0903 315.623 53.1959C316.797 54.3009 317.785 55.7583 318.586 57.5671C319.44 59.326 319.867 61.3859 319.867 63.7477C319.867 68.6719 317.918 72.5406 314.021 75.3546C310.177 78.1182 305.105 79.5 298.805 79.5ZM348.937 79.5C341.248 79.5 335.322 77.7164 331.157 74.1487C327.046 70.5811 324.83 65.9335 324.51 60.2052H331.558C332.519 69.4503 338.418 74.0731 349.258 74.0731C353.366 74.0731 356.65 73.2191 359.108 71.5107C361.615 69.7518 362.872 67.2397 362.872 63.9735C362.872 62.5166 362.576 61.2351 361.991 60.1301C361.403 59.0245 360.682 58.1201 359.829 57.4164C359.028 56.7131 357.799 56.0598 356.145 55.4569C354.487 54.8539 352.941 54.3765 351.5 54.0247C350.11 53.6733 348.188 53.2458 345.733 52.7437C342.796 52.1407 340.367 51.5378 338.445 50.9349C336.523 50.2815 334.601 49.4019 332.679 48.2968C330.757 47.1915 329.315 45.7843 328.354 44.076C327.447 42.3173 326.993 40.2069 326.993 37.745C326.993 33.3232 328.755 29.8562 332.278 27.3439C335.856 24.7813 340.581 23.5 346.454 23.5C359.321 23.5 366.556 29.1025 368.158 40.3076H361.351C360.814 36.4888 359.293 33.6248 356.786 31.7153C354.275 29.7557 350.883 28.7759 346.615 28.7759C342.663 28.7759 339.513 29.5296 337.163 31.037C334.868 32.5444 333.72 34.6799 333.72 37.4435C333.72 38.6494 333.96 39.7298 334.441 40.6844C334.975 41.5888 335.642 42.3678 336.443 43.0209C337.297 43.6238 338.392 44.1766 339.727 44.679C341.114 45.1814 342.476 45.6087 343.81 45.9603C345.146 46.2618 346.775 46.5885 348.697 46.9401C351.364 47.4425 353.554 47.9199 355.264 48.3719C356.97 48.7742 358.868 49.4019 360.95 50.2563C363.032 51.1108 364.634 52.0903 365.755 53.1959C366.929 54.3009 367.917 55.7583 368.718 57.5671C369.572 59.326 370 61.3859 370 63.7477C370 68.6719 368.05 72.5406 364.153 75.3546C360.309 78.1182 355.236 79.5 348.937 79.5Z" fill="white"/>
<path d="M165 10.5V8.5C165 6.29084 168.051 4.5 171.815 4.5H204.185C207.949 4.5 211 6.29084 211 8.5V10.5" stroke="#1C8DEB" stroke-width="9" stroke-linecap="square"/>
</svg>
