<?xml version="1.0" encoding="UTF-8"?> <svg xmlns="http://www.w3.org/2000/svg" width="538" height="90" viewBox="0 0 538 90" fill="none"><g clip-path="url(#clip0_8210_387)"><path d="M44.1441 53.5005C48.8355 53.5005 52.6386 49.6989 52.6386 45.0094C52.6386 40.32 48.8355 36.5184 44.1441 36.5184C39.4528 36.5184 35.6496 40.32 35.6496 45.0094C35.6496 49.6989 39.4528 53.5005 44.1441 53.5005Z" fill="#F26346"></path><path d="M65.7748 13.0747C65.7748 13.0747 53.0768 26.6406 53.0543 26.6628C51.1842 28.5104 50.0484 28.3168 50.0225 26.8097L49.9883 0.918551L38.2931 0.883362V27.5496C41.9278 27.1131 46.127 27.8998 50.027 29.965V29.9636L53.4435 31.8622C57.657 34.2038 62.9284 33.3609 66.1964 29.8199L74.0523 21.3488L65.7748 13.0747Z" fill="#F26346"></path><path d="M12.1964 23.3876C12.1964 23.3876 25.7677 36.0804 25.79 36.1029C27.6383 37.9723 27.4446 39.1076 25.9369 39.1335L0.035207 39.1677L3.8147e-06 50.8581H26.6772C26.2405 47.2249 27.0275 43.0274 29.0936 39.129H29.0922L30.9915 35.7139C33.3341 31.5021 32.4909 26.2329 28.9484 22.9662L20.4738 15.1135L12.1964 23.3876Z" fill="#F26346"></path><path d="M22.5135 76.9442C22.5135 76.9442 35.2115 63.3783 35.234 63.3561C37.1041 61.5085 38.2399 61.7021 38.2658 63.2092L38.3 89.1003L49.9952 89.1355V62.4693C46.3605 62.9058 42.1613 62.1191 38.2613 60.0539V60.0553L34.8448 58.1567C30.6313 55.8151 25.3599 56.658 22.0919 60.199L14.236 68.6701L22.5135 76.9442Z" fill="#F26346"></path><path d="M76.0919 66.6313C76.0919 66.6313 62.5205 53.9385 62.4983 53.916C60.6499 52.0466 60.8437 50.9113 62.3514 50.8854L88.2531 50.8512L88.2883 39.1608H61.6111C62.0478 42.794 61.2608 46.9915 59.1947 50.8899H59.1961L57.2967 54.305C54.9542 58.5168 55.7974 63.786 59.3399 67.0527L67.8145 74.9054L76.0919 66.6313Z" fill="#F26346"></path><path d="M212.268 20.2885L198.141 50.5858L184.609 20.2885H171.654L192.3 63.1143L180.183 89.1355H192.624L224.812 20.2885H212.268Z" fill="#F26346"></path><path d="M261.467 22.5503C257.765 20.2885 253.55 19.1581 248.82 19.1581C243.884 19.1581 239.497 20.2885 235.659 22.5503C231.819 24.8111 228.821 28.0152 226.662 32.1597C224.502 36.3061 223.424 41.0853 223.424 46.497C223.424 51.9108 224.502 56.7083 226.662 60.8865C228.821 65.0667 231.855 68.2862 235.762 70.548C239.669 72.8087 244.124 73.9391 249.129 73.9391C254.611 73.9391 259.462 72.5696 263.677 69.8284C267.893 67.0883 271.063 62.8744 273.188 57.1867L263.523 53.4868C262.083 57.1867 260.146 59.8767 257.714 61.5549C255.28 63.2341 252.349 64.0722 248.923 64.0722C246.18 64.0722 243.746 63.4396 241.623 62.1712C239.497 60.9039 237.834 58.9517 236.636 56.3128C235.709 54.2774 235.145 51.8587 234.934 49.0665H273.188C273.256 48.5881 273.292 48.1078 273.292 47.6284V46.1894C273.292 40.9135 272.246 36.2193 270.155 32.1086C268.064 27.9979 265.168 24.8111 261.467 22.5503ZM235.281 40.9473C235.555 39.3667 235.951 37.923 236.482 36.6311C237.577 33.9585 239.171 31.9542 241.263 30.6184C243.353 29.2826 245.838 28.6142 248.717 28.6142C252.83 28.6142 256.069 30.1043 258.433 33.0846C260.001 35.061 261.038 37.6915 261.566 40.9473H235.281Z" fill="#F26346"></path><path d="M161.609 22.5503C157.908 20.2885 153.692 19.1581 148.962 19.1581C144.027 19.1581 139.639 20.2885 135.801 22.5503C131.962 24.8111 128.964 28.0152 126.804 32.1597C124.645 36.3061 123.566 41.0853 123.566 46.497C123.566 51.9108 124.645 56.7083 126.804 60.8865C128.964 65.0667 131.997 68.2862 135.904 70.548C139.811 72.8087 144.266 73.9391 149.271 73.9391C154.754 73.9391 159.604 72.5696 163.82 69.8284C168.035 67.0883 171.205 62.8744 173.331 57.1867L163.665 53.4868C162.226 57.1867 160.288 59.8767 157.857 61.5549C155.422 63.2341 152.492 64.0722 149.066 64.0722C146.322 64.0722 143.889 63.4396 141.765 62.1712C139.639 60.9039 137.977 58.9517 136.779 56.3128C135.852 54.2774 135.288 51.8587 135.077 49.0665H173.331C173.398 48.5881 173.434 48.1078 173.434 47.6284V46.1894C173.434 40.9135 172.388 36.2193 170.297 32.1086C168.206 27.9979 165.311 24.8111 161.609 22.5503ZM135.424 40.9473C135.698 39.3667 136.093 37.923 136.624 36.6311C137.719 33.9585 139.313 31.9542 141.405 30.6184C143.495 29.2826 145.981 28.6142 148.859 28.6142C152.972 28.6142 156.212 30.1043 158.576 33.0846C160.143 35.061 161.18 37.6915 161.709 40.9473H135.424Z" fill="#F26346"></path><path d="M323.344 43.2091C327.251 41.3582 330.284 38.755 332.443 35.3975C334.602 32.0411 335.682 28.1359 335.682 23.6807C335.682 18.9527 334.636 14.8768 332.546 11.4498C330.454 8.02494 327.456 5.40338 323.549 3.58719C319.642 1.77305 315.083 0.864441 309.874 0.864441H281.496V72.8088H293.423V45.984H305.258L325.297 72.8088H339.795L318.196 45.0235C320.004 44.5746 321.724 43.9761 323.344 43.2091ZM293.423 11.6553H309.154C313.61 11.6553 317.054 12.6671 319.488 14.6877C321.92 16.7093 323.138 19.708 323.138 23.6807C323.138 26.286 322.588 28.4956 321.493 30.3098C320.396 32.126 318.802 33.4802 316.712 34.3694C314.62 35.2606 312.101 35.7062 309.154 35.7062H293.423V11.6553Z" fill="#475093"></path><path d="M376.275 21.42C372.743 19.9135 368.888 19.1582 364.707 19.1582C361.073 19.1582 357.767 19.7234 354.785 20.8548C351.804 21.9852 349.198 23.7165 346.971 26.0448C344.742 28.375 343.115 31.2521 342.087 34.678L351.649 38.4811C352.608 35.603 354.184 33.3596 356.379 31.7488C358.572 30.1401 361.211 29.3337 364.296 29.3337C368.065 29.3337 371.047 30.2934 373.242 32.2118C375.434 34.1302 376.531 37.0768 376.531 41.0505V46.5083C376.221 46.1876 375.902 45.8718 375.555 45.5721C372.298 42.7635 367.757 41.3582 361.931 41.3582C357.818 41.3582 354.151 42.0102 350.929 43.3113C347.707 44.6134 345.188 46.5154 343.372 49.0154C341.555 51.5174 340.647 54.4118 340.647 57.7008C340.647 61.0582 341.537 63.9537 343.321 66.3852C345.102 68.8176 347.536 70.686 350.621 71.987C353.705 73.2871 357.235 73.9392 361.211 73.9392C367.311 73.9392 372.041 72.4664 375.401 69.5198C376.053 68.9474 376.623 68.3107 377.149 67.6402V72.8088H387.842V39.9201C387.842 35.3301 386.796 31.4759 384.706 28.3577C382.614 25.2404 379.804 22.9275 376.275 21.42ZM373.396 63.3527C371.168 64.7243 368.237 65.4091 364.604 65.4091C360.971 65.4091 358.024 64.7243 355.762 63.3527C353.5 61.9832 352.369 60.0638 352.369 57.5976C352.369 55.0639 353.5 53.1107 355.762 51.7391C358.024 50.3696 360.97 49.6838 364.604 49.6838C368.237 49.6838 371.168 50.387 373.396 51.7903C375.623 53.1956 376.738 55.1313 376.738 57.5976C376.738 60.0638 375.623 61.9832 373.396 63.3527Z" fill="#475093"></path><path d="M435.344 29.0741C434.017 26.8792 432.374 24.9422 430.409 23.2699C427.186 20.5297 423.109 19.1582 418.174 19.1582C413.649 19.1582 409.588 20.3407 405.989 22.7047C402.391 25.0687 399.545 28.3239 397.455 32.4683C395.363 36.6148 394.319 41.2907 394.319 46.497C394.319 51.7054 395.363 56.3997 397.455 60.5778C399.545 64.758 402.391 68.0296 405.989 70.3936C409.588 72.7576 413.649 73.9391 418.174 73.9391C423.109 73.9391 427.204 72.5696 430.461 69.8284C432.41 68.1873 434.034 66.2942 435.344 64.1609V72.8087H446.655V0.864441H435.344V29.0741ZM428.456 61.7082C426.193 63.0798 423.623 63.7646 420.744 63.7646C416.287 63.7646 412.689 62.2407 409.948 59.1909C407.206 56.1421 405.835 51.9108 405.835 46.497C405.835 43.0026 406.468 39.9549 407.737 37.3507C409.005 34.7475 410.753 32.777 412.981 31.4402C415.208 30.1043 417.796 29.4359 420.744 29.4359C425.13 29.4359 428.695 30.9445 431.437 33.9585C434.178 36.9746 435.55 41.1527 435.55 46.497C435.55 50.0609 434.933 53.1445 433.699 55.7476C432.466 58.3528 430.718 60.3387 428.456 61.7082Z" fill="#475093"></path><path d="M489.14 21.42C485.608 19.9135 481.752 19.1582 477.572 19.1582C473.938 19.1582 470.632 19.7234 467.65 20.8548C464.668 21.9852 462.063 23.7165 459.836 26.0448C457.607 28.375 455.98 31.2521 454.952 34.678L464.514 38.4811C465.473 35.603 467.049 33.3596 469.244 31.7488C471.437 30.1401 474.076 29.3337 477.161 29.3337C480.93 29.3337 483.912 30.2934 486.107 32.2118C488.299 34.1302 489.396 37.0768 489.396 41.0505V46.5083C489.086 46.1876 488.767 45.8718 488.42 45.5721C485.163 42.7635 480.622 41.3582 474.796 41.3582C470.683 41.3582 467.016 42.0102 463.794 43.3113C460.571 44.6134 458.053 46.5154 456.237 49.0154C454.42 51.5174 453.512 54.4118 453.512 57.7008C453.512 61.0582 454.402 63.9537 456.185 66.3852C457.967 68.8176 460.401 70.686 463.486 71.987C466.57 73.2871 470.1 73.9392 474.076 73.9392C480.176 73.9392 484.906 72.4664 488.265 69.5198C488.918 68.9474 489.488 68.3107 490.013 67.6402V72.8088H500.707V39.9201C500.707 35.3301 499.661 31.4759 497.571 28.3577C495.479 25.2404 492.669 22.9275 489.14 21.42ZM486.26 63.3527C484.033 64.7243 481.102 65.4091 477.469 65.4091C473.835 65.4091 470.889 64.7243 468.627 63.3527C466.365 61.9832 465.234 60.0638 465.234 57.5976C465.234 55.0639 466.365 53.1107 468.627 51.7391C470.889 50.3696 473.835 49.6838 477.469 49.6838C481.102 49.6838 484.032 50.387 486.26 51.7903C488.487 53.1956 489.602 55.1313 489.602 57.5976C489.602 60.0638 488.487 61.9832 486.26 63.3527Z" fill="#475093"></path><path d="M535.121 19.1582C532.036 19.1582 529.312 19.9298 526.947 21.4711C524.582 23.0123 522.679 25.361 521.24 28.5109V20.2885H509.827V72.8087H521.24V44.9558C521.24 42.1472 521.719 39.7321 522.679 37.7104C523.639 35.6898 524.993 34.1128 526.741 32.9824C528.489 31.852 530.459 31.2858 532.653 31.2858H538V19.1581L535.121 19.1582Z" fill="#475093"></path></g><defs><clipPath id="clip0_8210_387"><rect width="538" height="90" fill="white"></rect></clipPath></defs></svg> 