<?xml version="1.0" encoding="UTF-8"?><svg id="Layer_1" xmlns="http://www.w3.org/2000/svg" width="232.25" height="213.37" viewBox="0 0 232.25 213.37"><defs><style>.cls-1{fill:#929497;}.cls-1,.cls-2{stroke-width:0px;}.cls-2{fill:#f4d30f;}</style></defs><path class="cls-2" d="M64.01,89.47l32.92,49.09c3.64,5.45,2.19,12.81-3.25,16.45-2.02,1.36-4.31,2.01-6.59,2.01-3.82,0-7.56-1.84-9.85-5.25l-45.17-67.36c-3.64-5.45-2.19-12.81,3.25-16.45,2.14-1.43,4.57-2.04,6.96-1.97.13,0,.25-.04.39-.04h17.33c13.62,0,24.7-9.48,24.7-21.13s-11.08-21.13-24.7-21.13H11.85C5.31,23.7,0,18.4,0,11.85S5.31,0,11.85,0h48.14c26.69,0,48.4,20.11,48.4,44.83s-19.57,42.74-44.39,44.64ZM135.13,23.7h85.27c6.54,0,11.85-5.31,11.85-11.85s-5.31-11.85-11.85-11.85h-85.27c-6.54,0-11.85,5.31-11.85,11.85s5.31,11.85,11.85,11.85ZM220.4,132.67h-85.27c-6.54,0-11.85,5.31-11.85,11.85s5.31,11.85,11.85,11.85h85.27c6.54,0,11.85-5.31,11.85-11.85s-5.31-11.85-11.85-11.85ZM220.4,65.96h-85.27c-6.54,0-11.85,5.31-11.85,11.85s5.31,11.85,11.85,11.85h85.27c6.54,0,11.85-5.31,11.85-11.85s-5.31-11.85-11.85-11.85Z"/><path class="cls-1" d="M.1,187.25h4.62v4.5c1.25-3.03,3.56-5.03,7.08-4.88v4.84h-.26c-4.05,0-6.81,2.61-6.81,7.91v7.61H.1v-19.98Z"/><path class="cls-1" d="M25.62,197.32v-.08c0-5.75,4.05-10.41,9.77-10.41,6.36,0,9.58,5,9.58,10.75,0,.42-.04.83-.08,1.29h-14.69c.49,3.29,2.76,5.07,5.75,5.07,2.27,0,3.78-.83,5.41-2.39l2.69,2.39c-1.93,2.27-4.5,3.75-8.17,3.75-5.75,0-10.26-4.2-10.26-10.37ZM40.42,195.84c-.3-2.92-2.04-5.26-5.07-5.26-2.84,0-4.77,2.12-5.19,5.26h10.26Z"/><path class="cls-1" d="M93.53,201.71v-10.52h-2.54v-3.94h2.54v-5.49h4.58v5.49h5.38v3.94h-5.38v9.8c0,1.78.91,2.5,2.46,2.5.99,0,1.93-.22,2.84-.68v3.75c-1.17.64-2.35,1.02-4.13,1.02-3.37,0-5.75-1.48-5.75-5.87Z"/><path class="cls-1" d="M119.73,179.61h4.62v10.71c1.33-1.86,3.1-3.48,6.25-3.48,4.54,0,7.11,2.99,7.11,7.64v12.76h-4.58v-11.35c0-3.14-1.55-4.88-4.28-4.88s-4.5,1.82-4.5,4.96v11.28h-4.62v-27.63Z"/><path class="cls-1" d="M155.11,187.25h4.62v19.98h-4.62v-19.98Z"/><path class="cls-1" d="M177.3,187.25h4.62v3.07c1.32-1.86,3.1-3.48,6.24-3.48,4.54,0,7.12,2.99,7.12,7.64v12.76h-4.58v-11.35c0-3.14-1.55-4.88-4.28-4.88s-4.5,1.82-4.5,4.96v11.28h-4.62v-19.98Z"/><path class="cls-1" d="M212.4,210.98l1.7-3.45c2.16,1.33,4.39,2.08,7.12,2.08,4.09,0,6.32-2.04,6.32-6.09v-1.52c-1.67,2.12-3.75,3.63-7.04,3.63-4.73,0-9.09-3.48-9.09-9.35v-.08c0-5.9,4.39-9.38,9.09-9.38,3.37,0,5.45,1.55,7,3.41v-2.99h4.58v15.9c0,3.33-.83,5.83-2.54,7.53-1.82,1.82-4.58,2.69-8.21,2.69-3.33,0-6.32-.8-8.93-2.39ZM227.58,196.26v-.08c0-3.22-2.69-5.45-5.87-5.45s-5.68,2.16-5.68,5.45v.08c0,3.25,2.54,5.49,5.68,5.49s5.87-2.23,5.87-5.49Z"/><path class="cls-2" d="M52.36,178.19h4.3l22.05,32.95h-4.3l-22.05-32.95Z"/></svg>